#!OML:ASF E:\VariousWalksJay\Project 1\Capture day 1\Session 1\Actor2.ASF
:FULLY-SPECIFIED
:DEGREES
663
root 4.84596 16.4117 22.7066 190.878 -0.455772 -177.498
lowerback -8.9524 -2.00095 -0.723066
upperback -1.6083 -2.75782 -3.49955
thorax 3.20467 -1.4882 -3.55052
lowerneck -1.57434 -8.58539 -6.08209
upperneck 19.5726 -12.8346 18.9169
head 7.9081 -4.32375 6.45539
rclavicle 3.27001e-014 1.27222e-014
rhumerus -31.8866 37.2539 -95.1724
rradius 60.164
rwrist -2.48536
rhand -6.43615 -8.9432
rfingers 7.12502
rthumb 19.413 -37.9941
lclavicle 3.27001e-014 1.27222e-014
lhumerus -18.4948 -15.6392 79.5541
lradius 36.3446
lwrist 10.6245
lhand -17.0437 -6.76144
lfingers 7.12502
lthumb 9.19315 23.0182
rfemur -33.6279 14.8046 24.9347
rtibia 51.6889
rfoot -25.182 -7.20533
rtoes -1.79296
lfemur 21.7431 7.34687 -12.8394
ltibia 7.95139e-014
lfoot -17.7375 19.6759
ltoes -11.0519
664
root 4.82557 16.3993 22.6738 191.066 -0.535776 -177.657
lowerback -8.90636 -1.95487 -0.551985
upperback -1.53654 -2.69507 -3.35183
thorax 3.25673 -1.4458 -3.48525
lowerneck -1.63048 -8.64066 -5.98809
upperneck 20.049 -12.9062 18.7524
head 8.07101 -4.31306 6.39089
rclavicle -5.04913e-014 -5.24792e-014
rhumerus -31.5587 37.1318 -94.7417
rradius 60.1235
rwrist -2.52293
rhand -6.38903 -9.00868
rfingers 7.12502
rthumb 19.4583 -38.055
lclavicle -5.04913e-014 -5.24792e-014
lhumerus -18.545 -15.6947 79.6395
lradius 36.4484
lwrist 10.6578
lhand -16.9903 -6.79826
lfingers 7.12502
lthumb 9.24474 22.9791
rfemur -33.7382 14.6838 24.6609
rtibia 51.833
rfoot -25.5936 -7.11248
rtoes -2.04607
lfemur 21.6575 7.47265 -13.0635
ltibia 6.36111e-015
lfoot -17.8678 19.6402
ltoes -10.9957
665
root 4.80524 16.3868 22.639 191.234 -0.595055 -177.77
lowerback -8.85956 -1.90681 -0.341485
upperback -1.47203 -2.63422 -3.18944
thorax 3.29964 -1.40402 -3.42685
lowerneck -1.67845 -8.68387 -5.88232
upperneck 20.4201 -12.9577 18.6177
head 8.1962 -4.29927 6.33323
rclavicle -1.5704e-014 -4.45278e-014
rhumerus -31.2804 37.0221 -94.367
rradius 60.097
rwrist -2.55239
rhand -6.33742 -9.08494
rfingers 7.12502
rthumb 19.508 -38.1263
lclavicle -1.5704e-014 -4.45278e-014
lhumerus -18.6121 -15.7866 79.7498
lradius 36.5542
lwrist 10.6786
lhand -16.9426 -6.85385
lfingers 7.12502
lthumb 9.29071 22.9214
rfemur -33.8169 14.5669 24.4549
rtibia 51.9738
rfoot -25.9863 -7.04476
rtoes -2.34611
lfemur 21.6066 7.61846 -13.2214
ltibia -6.36111e-015
lfoot -17.9611 19.558
ltoes -10.9377
666
root 4.78534 16.3747 22.6018 191.379 -0.643614 -177.843
lowerback -8.81714 -1.8675 -0.109786
upperback -1.41884 -2.58851 -3.00658
thorax 3.33242 -1.3699 -3.3607
lowerneck -1.68487 -8.71352 -5.79967
upperneck 20.6616 -12.9868 18.5334
head 8.27208 -4.28661 6.29617
rclavicle 3.30976e-014 6.52014e-014
rhumerus -31.0662 36.952 -94.0578
rradius 60.0796
rwrist -2.56334
rhand -6.2963 -9.1586
rfingers 7.12502
rthumb 19.5475 -38.1959
lclavicle 3.30976e-014 6.52014e-014
lhumerus -18.7019 -15.8788 79.8899
lradius 36.6491
lwrist 10.6766
lhand -16.9049 -6.91667
lfingers 7.12502
lthumb 9.3271 22.857
rfemur -33.8486 14.449 24.3132
rtibia 52.098
rfoot -26.3729 -7.00484
rtoes -2.65847
lfemur 21.5957 7.77335 -13.3161
ltibia 1.90833e-014
lfoot -18.0133 19.4287
ltoes -10.8793
667
root 4.76628 16.3633 22.5614 191.496 -0.681372 -177.873
lowerback -8.78064 -1.83143 0.145116
upperback -1.37348 -2.55082 -2.81104
thorax 3.35946 -1.33997 -3.29545
lowerneck -1.67614 -8.73742 -5.72328
upperneck 20.7771 -13.0081 18.4992
head 8.30547 -4.27903 6.27426
rclavicle 5.96354e-016 6.36111e-015
rhumerus -30.9003 36.9058 -93.8131
rradius 60.0551
rwrist -2.54841
rhand -6.27539 -9.22444
rfingers 7.12502
rthumb 19.5676 -38.2597
lclavicle 5.96354e-016 6.36111e-015
lhumerus -18.7936 -15.9883 80.0506
lradius 36.7213
lwrist 10.6624
lhand -16.871 -6.97357
lfingers 7.12502
lthumb 9.35978 22.7986
rfemur -33.8187 14.342 24.2384
rtibia 52.1943
rfoot -26.7617 -7.00156
rtoes -2.98529
lfemur 21.6322 7.9376 -13.3443
ltibia -3.49861e-014
lfoot -18.0206 19.2563
ltoes -10.8191
668
root 4.74831 16.3527 22.5171 191.58 -0.723641 -177.88
lowerback -8.74913 -1.80918 0.399293
upperback -1.34383 -2.53422 -2.60464
thorax 3.37225 -1.32167 -3.22072
lowerneck -1.64503 -8.75543 -5.66949
upperneck 20.7803 -13.0222 18.5197
head 8.30097 -4.27667 6.27282
rclavicle 2.67365e-014 -1.74931e-014
rhumerus -30.7992 36.8988 -93.6452
rradius 60.0106
rwrist -2.51021
rhand -6.26725 -9.28142
rfingers 7.12502
rthumb 19.5754 -38.3159
lclavicle 2.67365e-014 -1.74931e-014
lhumerus -18.8944 -16.0853 80.2338
lradius 36.758
lwrist 10.6345
lhand -16.8341 -7.01601
lfingers 7.12502
lthumb 9.39544 22.7546
rfemur -33.7132 14.2385 24.2123
rtibia 52.2555
rfoot -27.1662 -7.03555
rtoes -3.31587
lfemur 21.7172 8.0933 -13.3241
ltibia 2.8625e-014
lfoot -17.9748 19.0562
ltoes -10.7592
669
root 4.73154 16.3431 22.4683 191.637 -0.762559 -177.885
lowerback -8.74677 -1.79498 0.636864
upperback -1.32646 -2.52977 -2.40327
thorax 3.38826 -1.31091 -3.1444
lowerneck -1.59244 -8.77924 -5.63491
upperneck 20.6795 -13.0459 18.5938
head 8.26374 -4.28647 6.28939
rclavicle 2.50469e-014 4.92986e-014
rhumerus -30.7436 36.9128 -93.5507
rradius 59.9271
rwrist -2.45141
rhand -6.26178 -9.32681
rfingers 7.12502
rthumb 19.5807 -38.3608
lclavicle 2.50469e-014 4.92986e-014
lhumerus -18.9903 -16.1768 80.4271
lradius 36.7601
lwrist 10.6029
lhand -16.7875 -7.04163
lfingers 7.12502
lthumb 9.44041 22.7269
rfemur -33.5372 14.1453 24.2058
rtibia 52.2818
rfoot -27.589 -7.1026
rtoes -3.65592
lfemur 21.8447 8.24584 -13.284
ltibia 6.04305e-014
lfoot -17.8736 18.8435
ltoes -10.7006
670
root 4.71627 16.3344 22.4144 191.671 -0.800148 -177.901
lowerback -8.77525 -1.79331 0.838638
upperback -1.33182 -2.54268 -2.20824
thorax 3.39805 -1.31108 -3.05732
lowerneck -1.51681 -8.81073 -5.6259
upperneck 20.5057 -13.0808 18.7064
head 8.20375 -4.30827 6.3209
rclavicle -3.21037e-014 2.46493e-014
rhumerus -30.7431 36.9595 -93.5358
rradius 59.788
rwrist -2.38596
rhand -6.25057 -9.35751
rfingers 7.12502
rthumb 19.5915 -38.3904
lclavicle -3.21037e-014 2.46493e-014
lhumerus -19.0995 -16.2461 80.6333
lradius 36.7326
lwrist 10.5715
lhand -16.7275 -7.0391
lfingers 7.12502
lthumb 9.49824 22.7268
rfemur -33.2957 14.0655 24.203
rtibia 52.2787
rfoot -28.0291 -7.20118
rtoes -3.99649
lfemur 22.008 8.39163 -13.2402
ltibia -5.40694e-014
lfoot -17.7106 18.6356
ltoes -10.6465
671
root 4.70244 16.3267 22.3552 191.678 -0.849204 -177.943
lowerback -8.83601 -1.80569 0.995003
upperback -1.36091 -2.57413 -2.02877
thorax 3.40134 -1.32302 -2.96385
lowerneck -1.43861 -8.84884 -5.63052
upperneck 20.2891 -13.1265 18.8507
head 8.1339 -4.33719 6.36357
rclavicle 2.0276e-014 2.06736e-014
rhumerus -30.7981 37.0218 -93.5968
rradius 59.5915
rwrist -2.31644
rhand -6.20878 -9.38534
rfingers 7.12502
rthumb 19.6316 -38.4141
lclavicle 2.0276e-014 2.06736e-014
lhumerus -19.2172 -16.2951 80.8491
lradius 36.6815
lwrist 10.5491
lhand -16.6486 -7.00715
lfingers 7.12502
lthumb 9.57441 22.7553
rfemur -32.9904 13.9885 24.189
rtibia 52.2542
rfoot -28.4786 -7.32866
rtoes -4.332
lfemur 22.2038 8.51576 -13.2089
ltibia 4.13472e-014
lfoot -17.4789 18.4452
ltoes -10.6128
672
root 4.68995 16.3201 22.2904 191.661 -0.908068 -178.019
lowerback -8.93938 -1.82914 1.10282
upperback -1.41297 -2.6197 -1.87027
thorax 3.40489 -1.34445 -2.8679
lowerneck -1.36085 -8.89188 -5.64165
upperneck 20.0495 -13.1797 19.0176
head 8.05992 -4.36976 6.41391
rclavicle -9.54166e-015 -2.94201e-014
rhumerus -30.9044 37.0898 -93.7269
rradius 59.3364
rwrist -2.24228
rhand -6.13787 -9.40285
rfingers 7.12502
rthumb 19.6998 -38.4246
lclavicle -9.54166e-015 -2.94201e-014
lhumerus -19.352 -16.3386 81.0719
lradius 36.6195
lwrist 10.5411
lhand -16.568 -6.97075
lfingers 7.12502
lthumb 9.65217 22.7881
rfemur -32.6276 13.9171 24.1548
rtibia 52.2146
rfoot -28.9272 -7.4767
rtoes -4.63381
lfemur 22.4294 8.61894 -13.1986
ltibia -4.77083e-014
lfoot -17.1774 18.278
ltoes -10.6152
673
root 4.67902 16.3146 22.22 191.615 -0.986778 -178.115
lowerback -9.07673 -1.86555 1.17476
upperback -1.48862 -2.68272 -1.72951
thorax 3.40272 -1.37676 -2.77323
lowerneck -1.28987 -8.94053 -5.65928
upperneck 19.8052 -13.2414 19.1961
head 7.98865 -4.40539 6.46849
rclavicle -1.6201e-014 3.97569e-015
rhumerus -31.0678 37.1603 -93.9214
rradius 59.0354
rwrist -2.16294
rhand -6.03107 -9.42105
rfingers 7.12502
rthumb 19.8025 -38.4323
lclavicle -1.6201e-014 3.97569e-015
lhumerus -19.5043 -16.3758 81.2994
lradius 36.5505
lwrist 10.5472
lhand -16.4838 -6.93933
lfingers 7.12502
lthumb 9.73344 22.8158
rfemur -32.2054 13.851 24.1197
rtibia 52.1617
rfoot -29.3588 -7.65487
rtoes -4.89869
lfemur 22.6877 8.6924 -13.1902
ltibia -3.49861e-014
lfoot -16.8002 18.1327
ltoes -10.665
674
root 4.6698 16.3103 22.1439 191.531 -1.09185 -178.215
lowerback -9.24185 -1.91591 1.22097
upperback -1.58639 -2.76508 -1.59816
thorax 3.39282 -1.42056 -2.67699
lowerneck -1.22763 -8.98553 -5.68246
upperneck 19.5673 -13.2982 19.3853
head 7.92197 -4.43648 6.52847
rclavicle -1.54058e-015 2.14687e-014
rhumerus -31.3027 37.2344 -94.1738
rradius 58.71
rwrist -2.07617
rhand -5.90339 -9.42867
rfingers 7.12502
rthumb 19.9252 -38.4272
lclavicle -1.54058e-015 2.14687e-014
lhumerus -19.6839 -16.405 81.5355
lradius 36.4861
lwrist 10.5618
lhand -16.4094 -6.92407
lfingers 7.12502
lthumb 9.80521 22.8276
rfemur -31.7145 13.7948 24.106
rtibia 52.0928
rfoot -29.7657 -7.86313
rtoes -5.09715
lfemur 22.9871 8.73104 -13.1608
ltibia -5.08889e-014
lfoot -16.3459 18.0026
ltoes -10.7709
675
root 4.66233 16.3068 22.0624 191.409 -1.22 -178.307
lowerback -9.4302 -1.97422 1.25666
upperback -1.70356 -2.85986 -1.47673
thorax 3.37518 -1.47206 -2.58741
lowerneck -1.18727 -9.02699 -5.70381
upperneck 19.3415 -13.3512 19.5806
head 7.86361 -4.46203 6.59066
rclavicle 4.77083e-014 2.22639e-014
rhumerus -31.6098 37.2995 -94.4763
rradius 58.3805
rwrist -1.98102
rhand -5.75795 -9.43652
rfingers 7.12502
rthumb 20.065 -38.4204
lclavicle 4.77083e-014 2.22639e-014
lhumerus -19.882 -16.4477 81.775
lradius 36.4301
lwrist 10.5908
lhand -16.3436 -6.91846
lfingers 7.12502
lthumb 9.86869 22.8303
rfemur -31.1525 13.7519 24.1286
rtibia 52.0014
rfoot -30.1357 -8.10636
rtoes -5.24913
lfemur 23.3292 8.73962 -13.096
ltibia -1.90833e-014
lfoot -15.8088 17.8882
ltoes -10.9245
676
root 4.65632 16.3045 21.9755 191.25 -1.38409 -178.389
lowerback -9.64401 -2.04423 1.28486
upperback -1.83424 -2.97197 -1.36363
thorax 3.35683 -1.53336 -2.50554
lowerneck -1.16747 -9.06601 -5.7294
upperneck 19.1218 -13.4018 19.7816
head 7.81183 -4.48427 6.65542
rclavicle 2.03754e-014 1.90833e-014
rhumerus -31.986 37.3631 -94.8172
rradius 58.0643
rwrist -1.88437
rhand -5.61814 -9.43068
rfingers 7.12502
rthumb 20.1994 -38.4005
lclavicle 2.03754e-014 1.90833e-014
lhumerus -20.0854 -16.4945 82.0151
lradius 36.3771
lwrist 10.6174
lhand -16.2902 -6.93066
lfingers 7.12502
lthumb 9.92019 22.8156
rfemur -30.5123 13.709 24.1904
rtibia 51.878
rfoot -30.4746 -8.37715
rtoes -5.33415
lfemur 23.7132 8.70546 -12.9935
ltibia -1.59028e-014
lfoot -15.1804 17.7886
ltoes -11.1096
